<?xml version="1.0" encoding="UTF-8" standalone="no"?>
<!-- Generator: Adobe Illustrator 16.0.4, SVG Export Plug-In . SVG Version: 6.00 Build 0)  -->

<svg
   version="1.1"
   id="Layer_1"
   x="0px"
   y="0px"
   width="240.94701"
   height="62.202999"
   viewBox="23.16 0 240.94701 62.203001"
   enable-background="new 23.16 0 416.318 128.797"
   xml:space="preserve"
   sodipodi:docname="GMCA ICON.svg"
   inkscape:version="1.2.2 (732a01da63, 2022-12-09)"
   xmlns:inkscape="http://www.inkscape.org/namespaces/inkscape"
   xmlns:sodipodi="http://sodipodi.sourceforge.net/DTD/sodipodi-0.dtd"
   xmlns="http://www.w3.org/2000/svg"
   xmlns:svg="http://www.w3.org/2000/svg"><defs
   id="defs318" /><sodipodi:namedview
   id="namedview316"
   pagecolor="#ffffff"
   bordercolor="#000000"
   borderopacity="0.25"
   inkscape:showpageshadow="2"
   inkscape:pageopacity="0.0"
   inkscape:pagecheckerboard="0"
   inkscape:deskcolor="#d1d1d1"
   showgrid="false"
   inkscape:zoom="1.8632299"
   inkscape:cx="188.6509"
   inkscape:cy="119.95299"
   inkscape:window-width="1920"
   inkscape:window-height="991"
   inkscape:window-x="-9"
   inkscape:window-y="-9"
   inkscape:window-maximized="1"
   inkscape:current-layer="Layer_1" />
<path
   fill="#1e1e1e"
   d="M 62.719,21.52 C 62.452,15.311 57.956,9.85 49.39,9.85 c -9.743,0 -14.347,6.424 -14.347,16.381 v 9.422 c 0,10.012 4.122,17.023 14.454,17.023 8.726,0 13.488,-5.407 13.488,-11.938 V 39.881 H 49.551 v -9.796 h 25.106 v 7.762 c 0,14.347 -10.011,24.356 -25.374,24.356 -17.72,0 -26.123,-11.938 -26.123,-26.818 V 26.658 C 23.16,10.599 32.742,0 49.068,0 64.54,0 73.748,9.154 74.122,21.52 Z m 79.229,39.507 H 130.492 V 24.304 L 119.303,46.52 h -10.6 L 97.515,24.304 V 61.028 H 86.059 V 1.231 H 97.087 L 114.003,35.384 130.92,1.231 h 11.027 z M 153.297,35.385 V 26.82 c 0,-15.311 8.137,-26.82 26.124,-26.82 15.148,0 24.41,10.279 25.053,22.484 h -11.081 c -0.749,-6.746 -5.032,-12.635 -13.918,-12.635 -10.011,0 -14.293,6.854 -14.293,16.381 v 9.743 c 0,9.582 4.282,16.381 14.293,16.381 8.886,0 13.169,-5.889 13.918,-12.634 h 11.081 c -0.589,12.205 -9.902,22.482 -25.053,22.482 -17.989,0.003 -26.124,-11.507 -26.124,-26.817 z m 110.81,25.642 h -11.884 l -4.016,-12.58 h -23.232 l -4.015,12.58 H 209.075 L 230.542,1.231 h 12.15 z M 227.973,38.972 h 17.185 l -8.565,-26.979 z"
   id="path313"
   sodipodi:nodetypes="csssssccccsssssccccccccccccccccsssccsssscccsccccccccccccc" />
</svg>
