<?xml version="1.0" encoding="UTF-8"?>
<svg xmlns="http://www.w3.org/2000/svg"
 viewBox="0 0 512 512">

 <defs>
 <clipPath id="shieldClip">
 <path d="
 M256 40
 C215 68 155 84 100 84
 L100 200
 C100 305 165 390 256 458
 C347 390 412 305 412 200
 L412 84
 C357 84 297 68 256 40
 Z"/>
 </clipPath>
 </defs>

 <!-- Left half -->
 <rect x="0" y="0" width="256" height="512"
 fill="#FFFFFF"
 clip-path="url(#shieldClip)"/>

 <!-- Right half -->
 <rect x="256" y="0" width="256" height="512"
 fill="#000000"
 clip-path="url(#shieldClip)"/>

 <!-- White outline -->
 <path
 d="
 M256 40
 C215 68 155 84 100 84
 L100 200
 C100 305 165 390 256 458
 C347 390 412 305 412 200
 L412 84
 C357 84 297 68 256 40
 Z"
 fill="none"
 stroke="#FFFFFF"
 stroke-width="18"
 stroke-linejoin="round"
 stroke-linecap="round"/>

</svg>
